<svg xmlns="http://www.w3.org/2000/svg" xmlns="http://www.w3.org/2000/svg" viewBox="2695 1350 390 390"><rect x="2695" y="1350" width="390" height="390" fill="#ffffff" /><path d="M0 0 C16.83 0 33.66 0 51 0 C51 109.89 51 219.78 51 333 C14.04 333 -22.92 333 -61 333 C-61.32242427 282.86750355 -61.32242427 282.86750355 -61.390625 261.83007812 C-61.43806068 247.31462953 -61.49376984 232.79955295 -61.60351562 218.28442383 C-61.68341153 207.71221541 -61.73490332 197.14030932 -61.75270796 186.56780738 C-61.76311099 180.97284644 -61.78745014 175.37875015 -61.84584045 169.78406715 C-61.90043258 164.51022222 -61.91683431 159.23759211 -61.90486145 153.96349144 C-61.90704944 152.03542843 -61.9227906 150.10732177 -61.9536438 148.17950439 C-62.14624558 135.51625429 -60.63130883 128.21186187 -53 118 C-51.80113095 115.91401307 -50.62953154 113.81183212 -49.5 111.6875 C-49.0153125 110.78386719 -48.530625 109.88023438 -48.03125 108.94921875 C-47.6909375 108.30597656 -47.350625 107.66273437 -47 107 C-46.34 107 -45.68 107 -45 107 C-44.71769531 106.12601563 -44.43539062 105.25203125 -44.14453125 104.3515625 C-43.10100347 101.29577126 -41.9446624 98.34796386 -40.6875 95.375 C-40.24792969 94.32441406 -39.80835937 93.27382812 -39.35546875 92.19140625 C-38.49780476 90.17206481 -37.62702223 88.15820188 -36.73828125 86.15234375 C-31.38792415 73.88196643 -28.08467669 61.95234307 -26.5625 48.6875 C-24.82933522 34.40437613 -18.78412586 25.20602343 -10.09765625 14.0546875 C-6.59561469 9.4706785 -3.30810906 4.72587008 0 0 Z " transform="translate(2903,1670)" style="fill: #3DBA7B;" /><path d="M0 0 C21.78 0 43.56 0 66 0 C66.020625 5.754375 66.04125 11.50875 66.0625 17.4375 C66.071604 19.25564209 66.08070801 21.07378418 66.09008789 22.94702148 C66.09300711 24.38004482 66.09555566 25.81306898 66.09765625 27.24609375 C66.10277222 27.99669067 66.10788818 28.7472876 66.11315918 29.52062988 C66.11346992 31.34747601 66.06231113 33.17421683 66 35 C65 36 65 36 62.41209412 36.12025452 C61.25959671 36.11803391 60.1070993 36.11581329 58.91967773 36.11352539 C56.96776772 36.11341209 56.96776772 36.11341209 54.97642517 36.11329651 C53.54548098 36.10818909 52.11453718 36.10297308 50.68359375 36.09765625 C49.2277074 36.09579203 47.77182043 36.09436815 46.31593323 36.09336853 C42.47720621 36.08954365 38.63851681 36.07971364 34.79980469 36.06866455 C30.19764229 36.05665498 25.59546734 36.05204804 20.99329376 36.04621124 C13.99550298 36.03650185 6.9977948 36.01734513 0 36 C0 24.12 0 12.24 0 0 Z " transform="translate(2833,1492)" style="fill: #F2FBF7;" /><path d="M0 0 C21.78 0 43.56 0 66 0 C66 11.55 66 23.1 66 35 C44.22 35 22.44 35 0 35 C0 23.45 0 11.9 0 0 Z " transform="translate(2833,1591)" style="fill: #F3FCF8;" /><path d="M0 0 C21.78 0 43.56 0 66 0 C66.020625 5.589375 66.04125 11.17875 66.0625 16.9375 C66.071604 18.70343506 66.08070801 20.46937012 66.09008789 22.28881836 C66.09300714 23.68082605 66.09555567 25.07283459 66.09765625 26.46484375 C66.10277222 27.19384888 66.10788818 27.922854 66.11315918 28.6739502 C66.11347011 30.44970076 66.06228515 32.22534208 66 34 C65 35 65 35 62.41209412 35.12025452 C61.25959671 35.11803391 60.1070993 35.11581329 58.91967773 35.11352539 C56.96776772 35.11341209 56.96776772 35.11341209 54.97642517 35.11329651 C53.54548098 35.10818909 52.11453718 35.10297308 50.68359375 35.09765625 C49.2277074 35.09579203 47.77182043 35.09436815 46.31593323 35.09336853 C42.47720621 35.08954365 38.63851681 35.07971364 34.79980469 35.06866455 C30.19764229 35.05665498 25.59546734 35.05204804 20.99329376 35.04621124 C13.99550298 35.03650185 6.9977948 35.01734513 0 35 C0 23.45 0 11.9 0 0 Z " transform="translate(2833,1443)" style="fill: #F0FBF6;" /><path d="M0 0 C21.45 0 42.9 0 65 0 C65 11.55 65 23.1 65 35 C43.55 35 22.1 35 0 35 C0 23.45 0 11.9 0 0 Z " transform="translate(2834,1542)" style="fill: #F7FDFA;" /><path d="M0 0 C20.79 0 41.58 0 63 0 C63 11.88 63 23.76 63 36 C42.21 36 21.42 36 0 36 C0 24.12 0 12.24 0 0 Z " transform="translate(2913,1492)" style="fill: #FCFEFD;" /><path d="M0 0 C21.12 0 42.24 0 64 0 C64 11.55 64 23.1 64 35 C42.88 35 21.76 35 0 35 C0 23.45 0 11.9 0 0 Z " transform="translate(2912,1542)" style="fill: #F2FBF7;" /><path d="M0 0 C20.79 0 41.58 0 63 0 C63 11.55 63 23.1 63 35 C42.21 35 21.42 35 0 35 C0 23.45 0 11.9 0 0 Z " transform="translate(2913,1443)" style="fill: #F7FDFA;" /><path d="M0 0 C20.46 0 40.92 0 62 0 C62 11.22 62 22.44 62 34 C41.54 34 21.08 34 0 34 C0 22.78 0 11.56 0 0 Z " transform="translate(2913,1592)" style="fill: #FAFEFC;" /><path d="M0 0 C16.83 0 33.66 0 51 0 C51 109.89 51 219.78 51 333 C14.04 333 -22.92 333 -61 333 C-61 266.34 -61 199.68 -61 131 C-60.34 130.67 -59.68 130.34 -59 130 C-57.44197326 135.51149015 -56.7132742 140.50931366 -56.75949097 146.25109863 C-56.75778212 147.04197608 -56.75607327 147.83285354 -56.75431263 148.64769697 C-56.75103968 151.27629361 -56.76198493 153.90463033 -56.77294922 156.53320312 C-56.77351381 158.42598464 -56.77319584 160.31876659 -56.77206421 162.21154785 C-56.77149156 167.33491629 -56.78323171 172.45819063 -56.79721212 177.58153725 C-56.80973408 182.94135686 -56.81089114 188.30117875 -56.81326294 193.66101074 C-56.8194734 203.8038981 -56.83587836 213.94674223 -56.85596192 224.08961058 C-56.8825196 237.80041452 -56.89329707 251.51123034 -56.90496635 265.22205353 C-56.92375924 286.81473472 -56.96360785 308.40732469 -57 330 C-22.35 330.33 12.3 330.66 48 331 C48 222.76 48 114.52 48 3 C32.49 2.67 16.98 2.34 1 2 C0.67 3.65 0.34 5.3 0 7 C-4 12.62162162 -4 12.62162162 -7.3125 13.875 C-8.1478125 13.936875 -8.1478125 13.936875 -9 14 C-6.51896079 9.03792158 -3.18143852 4.54491218 0 0 Z " transform="translate(2903,1670)" style="fill: #65B78E;" /><path d="M0 0 C0.33 0 0.66 0 1 0 C1 110.22 1 220.44 1 334 C-36.62 334 -74.24 334 -113 334 C-113.24181821 282.99427114 -113.24181821 282.99427114 -113.29296875 261.6171875 C-113.3285679 246.85794565 -113.37041339 232.09890935 -113.45263672 217.33984375 C-113.51249159 206.5907745 -113.55116181 195.84187203 -113.56453097 185.09264076 C-113.57234431 179.40237202 -113.59067181 173.71258039 -113.63438034 168.02246475 C-113.67521713 162.66259036 -113.68764649 157.30338792 -113.67864609 151.94337273 C-113.68029176 149.98021603 -113.69216043 148.01703601 -113.71523285 146.05401421 C-113.91486066 128.18760548 -113.91486066 128.18760548 -108.48386574 120.48600578 C-107.99419004 119.99562387 -107.50451435 119.50524197 -107 119 C-106.34 119 -105.68 119 -105 119 C-104.67 117.35 -104.34 115.7 -104 114 C-103.34 114 -102.68 114 -102 114 C-103.23989619 118.32522998 -104.77677684 121.14865497 -107.56959534 124.63801575 C-112.82588024 132.75666801 -111.96945658 141.45626752 -111.88647461 150.79174805 C-111.89437301 152.78350712 -111.90534065 154.77525602 -111.91912842 156.76698303 C-111.94774478 162.14661716 -111.93367343 167.52537667 -111.91168666 172.90500998 C-111.89601042 178.53714817 -111.91993988 184.169118 -111.93959045 189.80122375 C-111.97078067 200.45408123 -111.96657479 211.10661608 -111.94951588 221.75949365 C-111.92850836 236.1633704 -111.96245446 250.56711223 -111.99325275 264.97095394 C-112.04029677 287.64745343 -112.01415653 310.32326487 -112 333 C-75.04 333 -38.08 333 0 333 C0 223.11 0 113.22 0 0 Z " transform="translate(2954,1670)" style="fill: #CBF3DF;" /><path d="M0 0 C20.79 0 41.58 0 63 0 C63 11.88 63 23.76 63 36 C42.21 36 21.42 36 0 36 C0 24.12 0 12.24 0 0 Z M2 2 C2 12.23 2 22.46 2 33 C12.75246769 33.76759478 23.42440003 34.18642636 34.20336914 34.18530273 C36.5921313 34.1875276 38.98045716 34.20589271 41.36914062 34.22460938 C42.91406096 34.22753811 44.45898343 34.22952638 46.00390625 34.23046875 C46.70504044 34.23765427 47.40617462 34.24483978 48.1285553 34.25224304 C53.00574156 34.22979935 56.07301109 33.40771112 61 32 C61 22.1 61 12.2 61 2 C41.53 2 22.06 2 2 2 Z " transform="translate(2913,1492)" style="fill: #CFF4E2;" /><path d="M0 0 C0.66 0 1.32 0 2 0 C2 5.61 2 11.22 2 17 C-2.62 17 -7.24 17 -12 17 C-10.89352305 12.57409219 -9.63546451 11.19730075 -6.5625 7.9375 C-4.12788624 5.33875498 -1.97804974 2.96707461 0 0 Z " transform="translate(2817,1609)" style="fill: #D6F5E5;" /><path d="M0 0 C0.66 0.33 1.32 0.66 2 1 C4.40692298 8.64303612 4.27369298 16.30062058 4.20581055 24.22875977 C4.18756783 26.4293179 4.18530146 28.62945217 4.18554688 30.83007812 C4.13643947 51.72712105 4.13643947 51.72712105 0.9375 58.125 C0.39416016 59.24261719 0.39416016 59.24261719 -0.16015625 60.3828125 C-0.43730469 60.91648437 -0.71445313 61.45015625 -1 62 C-2.39786424 58.19521719 -1.52946364 55.55105694 -0.5625 51.6875 C1.28350859 43.24786941 1.28364042 34.78484931 1.25 26.1875 C1.248293 25.1877565 1.248293 25.1877565 1.24655151 24.16781616 C1.21979238 16.06253591 0.90343622 8.05633998 0 0 Z " transform="translate(2798,1679)" style="fill: #C4EED9;" /><path d="M0 0 C10.56 0 21.12 0 32 0 C32.495 1.485 32.495 1.485 33 3 C32.54625 3.391875 32.0925 3.78375 31.625 4.1875 C29.86582448 5.92584001 29.86582448 5.92584001 29.14453125 8.31640625 C27.85158405 11.34799235 26.2636431 13.30701808 24.0625 15.75 C23.37285156 16.52859375 22.68320313 17.3071875 21.97265625 18.109375 C20 20 20 20 17 21 C18.4523882 16.50174626 20.9856157 13.36532703 24.0625 9.875 C27.6727009 5.84565077 27.6727009 5.84565077 30 1 C20.1 1 10.2 1 0 1 C0 0.67 0 0.34 0 0 Z " transform="translate(2848,1669)" style="fill: #D2F6E5;" /><path d="M0 0 C0.66 0 1.32 0 2 0 C-2.68190077 12.41039726 -11.4420788 25.7522434 -21 35 C-21 33.68 -21 32.36 -21 31 C-20.34 31 -19.68 31 -19 31 C-19 30.01 -19 29.02 -19 28 C-18.34 28 -17.68 28 -17 28 C-16.773125 26.948125 -16.54625 25.89625 -16.3125 24.8125 C-15.18840766 20.83369833 -13.2038144 18.64314688 -10 16 C-9.34 16 -8.68 16 -8 16 C-8 14.68 -8 13.36 -8 12 C-7.34 12 -6.68 12 -6 12 C-5.62875 10.4221875 -5.62875 10.4221875 -5.25 8.8125 C-4.21740482 5.1836655 -2.65228327 2.73516712 0 0 Z " transform="translate(2805,1577)" style="fill: #E1FBEF;" /><path d="M0 0 C3.16597824 1.04421738 6.04613682 2.46418741 9 4 C10.85415507 4.91669011 12.70832168 5.83335691 14.5625 6.75 C16.0426892 7.49797993 17.52223801 8.24723607 19 9 C19 9.33 19 9.66 19 10 C17.35 10 15.7 10 14 10 C14 9.34 14 8.68 14 8 C13.33613281 7.81824219 12.67226562 7.63648438 11.98828125 7.44921875 C4.54748011 5.33103448 4.54748011 5.33103448 1.3125 3.375 C-1.72210975 1.57063744 -4.52157268 1.34102229 -8 1 C-8.433125 1.928125 -8.433125 1.928125 -8.875 2.875 C-10 5 -10 5 -12 7 C-12.99 7 -13.98 7 -15 7 C-15.2475 7.639375 -15.495 8.27875 -15.75 8.9375 C-17 11 -17 11 -19.078125 11.62890625 C-20.02945313 11.81259766 -20.02945313 11.81259766 -21 12 C-19.05875778 9.61130833 -17.05754339 7.28931265 -15 5 C-14.53207031 4.47921875 -14.06414063 3.9584375 -13.58203125 3.421875 C-9.38039576 -0.6738369 -5.51805599 -0.98995024 0 0 Z " transform="translate(2796,1517)" style="fill: #76C49D;" /><path d="M0 0 C13.86 0 27.72 0 42 0 C40.86634892 4.53460431 39.35806626 5.90024653 36 9 C36.57584432 6.61435923 37.22227595 4.33317216 38 2 C19.685 1.505 19.685 1.505 1 1 C0.67 1.99 0.34 2.98 0 4 C0 2.68 0 1.36 0 0 Z " transform="translate(2835,1671)" style="fill: #50AD7E;" /><path d="M0 0 C17.49 0 34.98 0 53 0 C53 0.33 53 0.66 53 1 C36.17 1 19.34 1 2 1 C1.34 2.32 0.68 3.64 0 5 C-0.66 5.66 -1.32 6.32 -2 7 C-1.125 2.25 -1.125 2.25 0 0 Z " transform="translate(2901,1669)" style="fill: #D9F7E8;" /><path d="M0 0 C0.33 0 0.66 0 1 0 C1.16829526 6.27814497 0.54066563 12.17843451 -0.4375 18.375 C-0.57220703 19.27605469 -0.70691406 20.17710938 -0.84570312 21.10546875 C-1.86314597 27.72629194 -1.86314597 27.72629194 -3 30 C-3.66 30 -4.32 30 -5 30 C-4.14539205 23.6579094 -3.04460934 17.36480793 -1.9375 11.0625 C-1.75123047 9.99708984 -1.56496094 8.93167969 -1.37304688 7.83398438 C-0.91632744 5.22248608 -0.45861916 2.61116522 0 0 Z " transform="translate(2831,1706)" style="fill: #89CFAD;" /><path d="M0 0 C0.66 0 1.32 0 2 0 C0.53552694 3.94897712 -1.31809636 7.48782988 -3.4375 11.125 C-4.33275391 12.67574219 -4.33275391 12.67574219 -5.24609375 14.2578125 C-6.69675131 16.52587844 -8.00171964 18.22782476 -10 20 C-10 18.68 -10 17.36 -10 16 C-9.34 16 -8.68 16 -8 16 C-8 14.68 -8 13.36 -8 12 C-7.34 12 -6.68 12 -6 12 C-5.7525 10.948125 -5.505 9.89625 -5.25 8.8125 C-4.21740482 5.1836655 -2.65228327 2.73516712 0 0 Z " transform="translate(2805,1577)" style="fill: #D8F9E9;" /><path d="M0 0 C0 4.14875481 -0.11262411 6.08075239 -3.06640625 9.140625 C-3.89011719 9.83671875 -4.71382812 10.5328125 -5.5625 11.25 C-6.38878906 11.95640625 -7.21507813 12.6628125 -8.06640625 13.390625 C-8.70449219 13.92171875 -9.34257812 14.4528125 -10 15 C-10 10.79452429 -7.63261876 8.83289639 -5 5.8125 C-4.52304688 5.25369141 -4.04609375 4.69488281 -3.5546875 4.11914062 C-2.37633794 2.74047164 -1.18901048 1.36948528 0 0 Z " transform="translate(2792,1549)" style="fill: #C4EED9;" /><path d="M0 0 C0.66 0 1.32 0 2 0 C1.56643364 4.91375208 -0.60622458 7.52729957 -4 11 C-6.3125 11.875 -6.3125 11.875 -8 12 C-6.59808647 9.00745382 -4.96632511 6.4045389 -3 3.75 C-2.484375 3.04359375 -1.96875 2.3371875 -1.4375 1.609375 C-0.963125 1.07828125 -0.48875 0.5471875 0 0 Z " transform="translate(2902,1672)" style="fill: #55B282;" /><path d="M0 0 C9.9 0 19.8 0 30 0 C30 0.33 30 0.66 30 1 C29.19780029 1.01458252 28.39560059 1.02916504 27.5690918 1.04418945 C23.94140301 1.11856719 20.31464496 1.21526243 16.6875 1.3125 C14.79354492 1.34633789 14.79354492 1.34633789 12.86132812 1.38085938 C11.65283203 1.41630859 10.44433594 1.45175781 9.19921875 1.48828125 C8.08377686 1.51446533 6.96833496 1.54064941 5.8190918 1.56762695 C2.76261175 2.03640899 1.83540117 2.57817266 0 5 C0 3.35 0 1.7 0 0 Z " transform="translate(2836,1672)" style="fill: #3AAB71;" /><path d="M0 0 C7.61644202 1.24859705 13.38827536 4.07004031 20 8 C20 8.33 20 8.66 20 9 C18.35 9 16.7 9 15 9 C15 8.34 15 7.68 15 7 C14.33613281 6.81824219 13.67226562 6.63648438 12.98828125 6.44921875 C3.90455531 3.86334056 3.90455531 3.86334056 0 1 C0 0.67 0 0.34 0 0 Z " transform="translate(2795,1518)" style="fill: #62BB8F;" /><path d="M0 0 C2 1 2 1 2.6328125 2.75 C3.84418245 8.28769121 4.17993924 13.33191398 4 19 C3.67 19 3.34 19 3 19 C3 16.36 3 13.72 3 11 C2.34 11 1.68 11 1 11 C0.67 7.37 0.34 3.74 0 0 Z " transform="translate(2798,1679)" style="fill: #DBF6EA;" /><path d="M0 0 C0.66 0.33 1.32 0.66 2 1 C-2.455 6.94 -2.455 6.94 -7 13 C-8 10 -8 10 -7 8 C-6.34 8 -5.68 8 -5 8 C-4.67 6.68 -4.34 5.36 -4 4 C-3.34 4 -2.68 4 -2 4 C-2 3.01 -2 2.02 -2 1 C-1.34 0.67 -0.68 0.34 0 0 Z " transform="translate(2897,1676)" style="fill: #DFFAED;" /><path d="M0 0 C-0.8125 2.4375 -0.8125 2.4375 -2 5 C-2.99 5.33 -3.98 5.66 -5 6 C-5.33 6.99 -5.66 7.98 -6 9 C-8.0625 9.6875 -8.0625 9.6875 -10 10 C-3.63636364 0 -3.63636364 0 0 0 Z " transform="translate(2818,1611)" style="fill: #CAF3DE;" /><path d="M0 0 C0.65234375 1.765625 0.65234375 1.765625 1 4 C0.00390625 5.921875 0.00390625 5.921875 -1.4375 7.75 C-1.91058594 8.36359375 -2.38367187 8.9771875 -2.87109375 9.609375 C-3.24363281 10.06828125 -3.61617187 10.5271875 -4 11 C-4.66 10.67 -5.32 10.34 -6 10 C-4.6302836 6.00499382 -2.74277578 3.19990508 0 0 Z " transform="translate(2792,1601)" style="fill: #67C194;" /><path d="M0 0 C6.93 0 13.86 0 21 0 C21.33 0.99 21.66 1.98 22 3 C21.42926758 2.84152588 20.85853516 2.68305176 20.27050781 2.51977539 C18.02789812 2.00638657 15.96682085 1.79834104 13.671875 1.68359375 C12.47304687 1.62075195 12.47304687 1.62075195 11.25 1.55664062 C10.0125 1.49766602 10.0125 1.49766602 8.75 1.4375 C7.90953125 1.39431641 7.0690625 1.35113281 6.203125 1.30664062 C4.13559329 1.20091457 2.06781719 1.09998705 0 1 C0 0.67 0 0.34 0 0 Z " transform="translate(2977,1380)" style="fill: #BCEDD7;" /><path d="M0 0 C0.66 0 1.32 0 2 0 C0.34832443 3.5786304 -1.78286492 6.74820188 -4 10 C-5 7 -5 7 -3.6875 4.3125 C-3.130625 3.549375 -2.57375 2.78625 -2 2 C-1.34 2 -0.68 2 0 2 C0 1.34 0 0.68 0 0 Z " transform="translate(2887,1689)" style="fill: #DFFAEC;" /><path d="M0 0 C0.66 0 1.32 0 2 0 C1.875 1.75 1.875 1.75 1 4 C-2.0625 6.25 -2.0625 6.25 -5 8 C-3.63055898 5.05043472 -2.12169591 2.47531189 0 0 Z " transform="translate(2891,1687)" style="fill: #66BA90;" /><path d="M0 0 C0.6875 1.75 0.6875 1.75 1 4 C-0.3125 6.25 -0.3125 6.25 -2 8 C-2.66 8 -3.32 8 -4 8 C-2.25 2.25 -2.25 2.25 0 0 Z " transform="translate(2864,1690)" style="fill: #B9EBD3;" /><path d="M0 0 C0.33 0.66 0.66 1.32 1 2 C-0.25 4.5625 -0.25 4.5625 -2 7 C-2.99 7.33 -3.98 7.66 -5 8 C-3.8141763 4.62496331 -2.72426311 2.35277269 0 0 Z " transform="translate(2870,1682)" style="fill: #B6EACF;" /><path d="M0 0 C1 2 1 2 0.3125 4.5625 C-1 7 -1 7 -3.125 7.8125 C-3.74375 7.874375 -4.3625 7.93625 -5 8 C-3.62845496 5.04590299 -2.01136276 2.55991624 0 0 Z " transform="translate(2899,1676)" style="fill: #73C29A;" /></svg>